<svg width="54" height="23" viewBox="0 0 54 23" fill="none" xmlns="http://www.w3.org/2000/svg">
<path d="M1.13636 10V2.72727H1.36364V9.77273H5V10H1.13636ZM11.0886 2.72727V10H10.8614V2.72727H11.0886ZM16.9358 2.95455V2.72727H21.8506V2.95455H19.5068V10H19.2795V2.95455H16.9358ZM27.1686 2.95455V2.72727H32.0834V2.95455H29.7396V10H29.5124V2.95455H27.1686ZM37.927 10V2.72727H38.1543V9.77273H41.7906V10H37.927ZM47.652 10V2.72727H51.5298V2.95455H47.8793V6.25H51.3168V6.47727H47.8793V9.77273H51.6293V10H47.652Z" fill="black"/>
<path d="M0.630682 11.9886V11.2727H6.95881V11.9886H4.19318V20H3.39631V11.9886H0.630682ZM8.60369 20V13.4545H9.36648V20H8.60369ZM8.99148 12.3295C8.83523 12.3295 8.7017 12.277 8.59091 12.1719C8.48011 12.0639 8.42472 11.9347 8.42472 11.7841C8.42472 11.6335 8.48011 11.5057 8.59091 11.4006C8.7017 11.2926 8.83523 11.2386 8.99148 11.2386C9.14773 11.2386 9.28125 11.2926 9.39205 11.4006C9.50284 11.5057 9.55824 11.6335 9.55824 11.7841C9.55824 11.9347 9.50284 12.0639 9.39205 12.1719C9.28125 12.277 9.14773 12.3295 8.99148 12.3295ZM12.131 15.9091V20H11.3725V13.4545H12.1097V14.4815H12.1779C12.3313 14.1463 12.57 13.8778 12.8938 13.6761C13.2205 13.4716 13.6239 13.3693 14.104 13.3693C14.5444 13.3693 14.9308 13.4616 15.2631 13.6463C15.5984 13.8281 15.8583 14.0966 16.043 14.4517C16.2305 14.8068 16.3242 15.2429 16.3242 15.7599V20H15.5657V15.8068C15.5657 15.2699 15.4151 14.8452 15.114 14.5327C14.8157 14.2202 14.4151 14.0639 13.9123 14.0639C13.5685 14.0639 13.2631 14.1378 12.9961 14.2855C12.729 14.4332 12.5174 14.6463 12.3612 14.9247C12.2077 15.2003 12.131 15.5284 12.131 15.9091ZM18.6158 22.4545C18.4652 22.4545 18.3246 22.4403 18.1939 22.4119C18.0632 22.3835 17.9595 22.3523 17.8828 22.3182L18.0874 21.6491C18.3459 21.7287 18.576 21.7571 18.7777 21.7344C18.9794 21.7145 19.1584 21.6236 19.3146 21.4616C19.4709 21.3026 19.6101 21.0582 19.7322 20.7287L19.9709 20.0639L17.5632 13.4545H18.3857L20.3288 18.9986H20.3885L22.3317 13.4545H23.1541L20.3842 21.0355C20.2678 21.3509 20.1243 21.6136 19.9538 21.8239C19.7834 22.0369 19.5859 22.1946 19.3615 22.2969C19.1399 22.402 18.8913 22.4545 18.6158 22.4545ZM23.8572 11.9886V11.2727H30.1854V11.9886H27.4197V20H26.6229V11.9886H23.8572ZM33.4165 20.1364C32.8512 20.1364 32.3512 19.9929 31.9165 19.706C31.4847 19.419 31.1467 19.0227 30.9023 18.517C30.658 18.0085 30.5359 17.4219 30.5359 16.7571C30.5359 16.0866 30.658 15.4972 30.9023 14.9886C31.1467 14.4773 31.4847 14.0795 31.9165 13.7955C32.3512 13.5085 32.8512 13.3651 33.4165 13.3651C33.9819 13.3651 34.4805 13.5085 34.9123 13.7955C35.3441 14.0824 35.6822 14.4801 35.9265 14.9886C36.1737 15.4972 36.2972 16.0866 36.2972 16.7571C36.2972 17.4219 36.1751 18.0085 35.9308 18.517C35.6864 19.0227 35.3469 19.419 34.9123 19.706C34.4805 19.9929 33.9819 20.1364 33.4165 20.1364ZM33.4165 19.4418C33.8711 19.4418 34.256 19.3196 34.5714 19.0753C34.8867 18.831 35.1254 18.5057 35.2873 18.0994C35.4521 17.6932 35.5344 17.2457 35.5344 16.7571C35.5344 16.2685 35.4521 15.8196 35.2873 15.4105C35.1254 15.0014 34.8867 14.6733 34.5714 14.4261C34.256 14.179 33.8711 14.0554 33.4165 14.0554C32.9648 14.0554 32.5799 14.179 32.2617 14.4261C31.9464 14.6733 31.7063 15.0014 31.5415 15.4105C31.3796 15.8196 31.2987 16.2685 31.2987 16.7571C31.2987 17.2457 31.3796 17.6932 31.5415 18.0994C31.7063 18.5057 31.9464 18.831 32.2617 19.0753C32.5771 19.3196 32.962 19.4418 33.4165 19.4418ZM40.5064 20.1364C39.9411 20.1364 39.4411 19.9929 39.0064 19.706C38.5746 19.419 38.2365 19.0227 37.9922 18.517C37.7479 18.0085 37.6257 17.4219 37.6257 16.7571C37.6257 16.0866 37.7479 15.4972 37.9922 14.9886C38.2365 14.4773 38.5746 14.0795 39.0064 13.7955C39.4411 13.5085 39.9411 13.3651 40.5064 13.3651C41.0717 13.3651 41.5703 13.5085 42.0021 13.7955C42.4339 14.0824 42.772 14.4801 43.0163 14.9886C43.2635 15.4972 43.3871 16.0866 43.3871 16.7571C43.3871 17.4219 43.2649 18.0085 43.0206 18.517C42.7763 19.0227 42.4368 19.419 42.0021 19.706C41.5703 19.9929 41.0717 20.1364 40.5064 20.1364ZM40.5064 19.4418C40.9609 19.4418 41.3459 19.3196 41.6612 19.0753C41.9766 18.831 42.2152 18.5057 42.3771 18.0994C42.5419 17.6932 42.6243 17.2457 42.6243 16.7571C42.6243 16.2685 42.5419 15.8196 42.3771 15.4105C42.2152 15.0014 41.9766 14.6733 41.6612 14.4261C41.3459 14.179 40.9609 14.0554 40.5064 14.0554C40.0547 14.0554 39.6697 14.179 39.3516 14.4261C39.0362 14.6733 38.7962 15.0014 38.6314 15.4105C38.4695 15.8196 38.3885 16.2685 38.3885 16.7571C38.3885 17.2457 38.4695 17.6932 38.6314 18.0994C38.7962 18.5057 39.0362 18.831 39.3516 19.0753C39.6669 19.3196 40.0518 19.4418 40.5064 19.4418ZM45.8107 11.2727V20H45.0522V11.2727H45.8107ZM52.2156 14.8906L51.521 15.0866C51.4528 14.8906 51.3562 14.7131 51.2312 14.554C51.1062 14.3949 50.9428 14.2685 50.7411 14.1747C50.5423 14.081 50.2951 14.0341 49.9996 14.0341C49.5565 14.0341 49.1928 14.1392 48.9087 14.3494C48.6246 14.5597 48.4826 14.831 48.4826 15.1634C48.4826 15.4446 48.5792 15.6733 48.7724 15.8494C48.9684 16.0227 49.2695 16.1605 49.6758 16.2628L50.6644 16.5057C51.2127 16.6392 51.6232 16.8509 51.896 17.1406C52.1715 17.4304 52.3093 17.794 52.3093 18.2315C52.3093 18.6009 52.207 18.929 52.0025 19.2159C51.7979 19.5028 51.5124 19.7287 51.146 19.8935C50.7823 20.0554 50.3604 20.1364 49.8803 20.1364C49.2411 20.1364 48.7141 19.9929 48.2994 19.706C47.8846 19.4162 47.619 18.9986 47.5025 18.4531L48.2312 18.2741C48.3249 18.6634 48.5082 18.9574 48.7809 19.1562C49.0565 19.3551 49.4187 19.4545 49.8675 19.4545C50.3704 19.4545 50.7724 19.3423 51.0735 19.1179C51.3746 18.8906 51.5252 18.6065 51.5252 18.2656C51.5252 18.0014 51.4371 17.7798 51.261 17.6009C51.0849 17.419 50.8178 17.2855 50.4599 17.2003L49.3903 16.9446C48.8221 16.8082 48.4016 16.5923 48.1289 16.2969C47.8562 16.0014 47.7198 15.6349 47.7198 15.1974C47.7198 14.8366 47.8178 14.5199 48.0138 14.2472C48.2099 13.9716 48.4798 13.7557 48.8235 13.5994C49.1673 13.4432 49.5593 13.3651 49.9996 13.3651C50.5991 13.3651 51.0778 13.5014 51.4357 13.7741C51.7965 14.044 52.0565 14.4162 52.2156 14.8906Z" fill="black"/>
</svg>
